# Blender 5.1.0
# www.blender.org
mtllib ammo_box.mtl
o Cube.001
v 2.138953 4.120419 -7.938942
v 2.138953 3.182223 -7.938942
v 2.138953 4.120419 7.938942
v 2.138953 3.182223 7.938942
v -6.866359 1.824306 -7.938942
v -6.866359 0.886109 -7.938942
v -6.866359 1.824306 7.938942
v -6.866359 0.886109 7.938942
v 2.138953 -0.884671 -7.938942
v 2.138953 -8.165857 -7.938942
v 2.138953 -0.884671 7.938942
v 2.138953 -8.165857 7.938942
v -6.866358 -0.884671 -7.938942
v -6.866358 -8.165857 -7.938942
v -6.866358 -0.884671 7.938942
v -6.866358 -8.165857 7.938942
v -8.762558 0.886109 -7.938942
v -8.762558 0.886109 7.938942
v -8.762558 1.485454 7.938942
v -8.762558 1.485454 -7.938942
v -8.762558 -8.165857 -7.938942
v -8.762558 -8.165857 7.938942
v -8.762558 -0.080740 7.938942
v -8.762558 -0.080740 -7.938942
vn -0.2471 0.9690 -0.0000
vn -0.0000 -0.0000 1.0000
vn 0.2471 -0.9690 -0.0000
vn 1.0000 -0.0000 -0.0000
vn -0.0000 -0.0000 -1.0000
vn -0.0000 1.0000 -0.0000
vn -0.0000 -1.0000 -0.0000
vn -1.0000 -0.0000 -0.0000
vn -0.1759 0.9844 -0.0000
vn 0.3903 0.9207 -0.0000
vt 0.625000 0.500000
vt 0.875000 0.500000
vt 0.875000 0.750000
vt 0.625000 0.750000
vt 0.375000 0.750000
vt 0.625000 1.000000
vt 0.375000 1.000000
vt 0.125000 0.500000
vt 0.375000 0.500000
vt 0.125000 0.750000
vt 0.375000 0.250000
vt 0.625000 0.250000
vt 0.375000 0.000000
vt 0.625000 0.000000
s 0
usemtl Material.001
f 1/1/1 5/2/1 7/3/1 3/4/1
f 4/5/2 3/4/2 7/6/2 8/7/2
f 6/8/3 2/9/3 4/5/3 8/10/3
f 2/9/4 1/1/4 3/4/4 4/5/4
f 6/11/5 5/12/5 1/1/5 2/9/5
f 18/13/8 19/14/8 20/12/8 17/11/8
f 6/8/7 8/10/7 18/10/7 17/8/7
f 7/3/9 5/2/9 20/2/9 19/3/9
f 5/12/5 6/11/5 17/11/5 20/12/5
f 8/7/2 7/6/2 19/6/2 18/7/2
f 17/11/4 18/13/4 23/14/4 24/12/4
f 13/12/2 6/8/2 17/8/2 24/12/2
f 8/10/8 6/8/8 13/12/8 15/3/8
f 8/10/5 15/3/5 23/6/5 18/13/5
usemtl Material
f 16/7/2 15/6/2 23/6/2 22/7/2
f 9/1/6 13/2/6 15/3/6 11/4/6
f 12/5/2 11/4/2 15/6/2 16/7/2
f 13/12/5 14/11/5 21/11/5 24/12/5
f 14/8/7 10/9/7 12/5/7 16/10/7
f 10/9/4 9/1/4 11/4/4 12/5/4
f 14/11/5 13/12/5 9/1/5 10/9/5
f 22/13/8 23/14/8 24/12/8 21/11/8
f 14/8/7 16/10/7 22/10/7 21/8/7
f 15/3/10 13/2/10 24/2/10 23/3/10
