# Blender 5.1.1
# www.blender.org
mtllib reg_00.mtl
o Cube.008
v -2.161223 -24.815342 7.518864
v -2.161223 -20.492895 7.518864
v -2.161223 -24.815342 3.196417
v -2.161223 -20.492895 3.196417
v 2.161223 -24.815342 7.518864
v 2.161223 -20.492895 7.518864
v 2.161223 -24.815342 3.196417
v 2.161223 -20.492895 3.196417
v 9.894904 -22.379517 3.196417
v 9.894904 -24.815342 3.196417
v 9.894904 -24.815342 7.518864
v 9.894904 -22.379517 7.518864
v -1.637212 -4.065440 6.994852
v -1.637212 -0.791016 6.994852
v -1.637212 -4.065440 3.720428
v -1.637212 -0.791016 3.720428
v 1.637212 -4.065440 6.994852
v 1.637212 -0.791016 6.994852
v 1.637212 -4.065440 3.720428
v 1.637212 -0.791016 3.720428
v -1.304789 -10.949340 6.662429
v -1.304789 -4.065440 6.662429
v -1.304789 -10.949340 4.052850
v -1.304789 -4.065440 4.052850
v 1.304790 -10.949340 6.662429
v 1.304790 -4.065440 6.662429
v 1.304790 -10.949340 4.052850
v 1.304790 -4.065440 4.052850
v -1.637212 -14.223765 6.994852
v -1.637212 -10.949342 6.994852
v -1.637212 -14.223765 3.720428
v -1.637212 -10.949342 3.720428
v 1.637212 -14.223765 6.994852
v 1.637212 -10.949342 6.994852
v 1.637212 -14.223765 3.720428
v 1.637212 -10.949342 3.720428
v -1.304789 -20.492895 6.662429
v -1.304789 -14.223765 6.662429
v -1.304789 -20.492895 4.052850
v -1.304789 -14.223765 4.052850
v 1.304790 -20.492895 6.662429
v 1.304790 -14.223765 6.662429
v 1.304790 -20.492895 4.052850
v 1.304790 -14.223765 4.052850
v -1.175443 15.056683 1.106721
v -1.175443 18.541178 1.106721
v -1.175443 15.056683 -1.106720
v -1.175443 18.541178 -1.106720
v 1.906018 15.056683 1.106721
v 1.906018 18.541178 1.106721
v 1.906018 15.056683 -1.106720
v 1.906018 18.541178 -1.106720
v -3.122364 -0.791011 7.518864
v -3.122364 15.056679 7.923846
v -3.122364 -0.791011 -7.518863
v -3.122364 15.056679 -7.923845
v 3.122364 -0.791011 7.518864
v 3.122364 15.056679 7.923846
v 3.122364 -0.791011 -7.518863
v 3.122364 15.056679 -7.923845
v -3.122364 7.132835 7.923846
v -3.122364 7.132835 -7.923845
v 3.122364 7.132835 -7.923845
v 3.122364 7.132835 7.923846
v -3.122364 2.913645 -7.518863
v 3.122364 2.913645 -7.518863
v 3.122364 2.913645 7.518864
v -3.122364 2.913645 7.518864
v 14.359871 18.763811 -3.145589
v 11.146120 18.763811 -3.145589
v 14.359871 19.187014 -2.412570
v 11.146120 19.187014 -2.412570
v 14.359871 20.033430 -2.412570
v 11.146120 20.033430 -2.412570
v 14.359871 20.456636 -3.145589
v 11.146120 20.456636 -3.145589
v 14.359871 20.033430 -3.878606
v 11.146120 20.033430 -3.878606
v 14.359871 19.187014 -3.878606
v 11.146120 19.187014 -3.878606
v 1.117850 16.830341 -0.045145
v 1.287520 23.508303 6.750247
v -3.490428 18.015154 -0.045145
v 1.287519 24.909422 6.750247
v 1.117850 28.037844 -0.045145
v -3.490428 19.903849 -0.045145
v 1.117850 16.830341 -1.789349
v -3.490428 18.015154 -1.789349
v 1.287519 23.508303 -8.584742
v 1.117850 28.037844 -1.789349
v 1.287519 24.909422 -8.584742
v -3.490428 19.903849 -1.789349
v 2.432317 16.830341 -0.045145
v 12.933377 16.400887 2.889531
v 2.262647 23.508303 6.750247
v 2.432317 28.037844 -0.045145
v 2.262647 24.909422 6.750247
v 7.240241 24.645170 2.889531
v 2.432317 16.830341 -1.789349
v 2.262647 23.508303 -8.584742
v 12.933377 16.400887 -4.724025
v 2.432317 28.037844 -1.789349
v 7.240241 24.645170 -4.724025
v 2.262647 24.909422 -8.584742
v 1.117850 16.830341 -0.917247
v -3.490428 18.015154 -0.917247
v 1.117850 28.037844 -0.917247
v -3.490428 19.903849 -0.917247
v 2.432317 16.830341 -0.917248
v 17.915462 16.400887 -0.917248
v 2.432317 28.037844 -0.917248
v 12.144725 24.645170 -0.917247
v 2.334427 24.753355 -9.290010
v 2.334427 23.634665 -9.290010
v 2.334427 24.753355 -8.584743
v 2.334427 23.634665 -8.584743
v 1.215739 24.753355 -9.290010
v 1.215739 23.634665 -9.290010
v 1.215739 24.753355 -8.584743
v 1.215739 23.634665 -8.584743
v 1.544781 24.753355 -8.881914
v 1.544780 34.039459 -8.881914
v 1.544781 24.753355 -9.265266
v 1.544780 33.541870 -9.265266
v 1.928132 24.753355 -8.881914
v 1.928131 34.039459 -8.881914
v 1.928132 24.753355 -9.265266
v 1.928132 33.541870 -9.265266
v 12.837545 20.250635 1.707918
v 9.623796 20.250635 1.707918
v 12.837545 20.673841 2.440935
v 9.623796 20.673841 2.440935
v 12.837545 21.520258 2.440935
v 9.623796 21.520258 2.440935
v 12.837545 21.943464 1.707918
v 9.623796 21.943464 1.707918
v 12.837545 21.520258 0.974900
v 9.623796 21.520258 0.974900
v 12.837545 20.673841 0.974900
v 9.623796 20.673841 0.974900
v 12.133368 21.527666 -3.145589
v 8.919616 21.527666 -3.145588
v 12.133368 21.950872 -2.412570
v 8.919616 21.950872 -2.412570
v 12.133368 22.797293 -2.412570
v 8.919616 22.797293 -2.412570
v 12.133368 23.220495 -3.145589
v 8.919616 23.220495 -3.145588
v 12.133368 22.797293 -3.878606
v 8.919616 22.797293 -3.878606
v 12.133368 21.950872 -3.878606
v 8.919616 21.950872 -3.878606
v 13.850804 1.945270 0.747563
v 14.774238 2.157465 5.984076
v 10.928515 1.618997 3.143079
v 14.144739 2.091065 6.713533
v 13.248789 6.701593 0.660991
v 14.172226 6.913788 5.897504
v 10.326504 6.375319 3.056507
v 13.542728 6.847387 6.626961
v 14.283182 2.039256 2.904422
v 11.729570 1.769903 5.863518
v 11.127559 6.526228 5.776946
v 13.681168 6.795578 2.817850
v 16.613085 2.285011 0.204556
v 16.375170 2.320187 3.791435
v 15.773161 7.076511 3.704863
v 16.011074 7.041336 0.117983
v 10.832967 1.642124 5.078145
v 10.230955 6.398447 4.991573
v 13.787724 6.777599 1.089116
v 14.389735 2.021277 1.175687
v -1.720775 11.172995 12.038576
v -0.417306 13.979515 12.421814
v -1.848761 11.157841 8.358103
v -1.609608 14.505156 8.315487
v 0.562371 11.316946 10.448364
v 1.844368 14.125460 10.804155
v 1.464130 11.165834 7.998838
v 1.716408 14.550673 8.054918
v 3.089547 5.429592 12.659870
v 5.023303 6.762054 13.222540
v -1.168108 11.668987 11.885616
v -0.191457 13.535873 12.167055
v 3.619638 5.650763 10.314333
v 5.553391 6.983225 10.877003
v 0.290813 11.780848 10.678564
v 1.271897 13.647169 10.965347
v 4.452512 2.422957 13.150928
v 7.112012 4.255499 13.924772
v 2.601687 5.176003 12.992241
v 5.261187 7.008541 13.766085
v 5.181547 2.727135 9.925101
v 7.841047 4.559677 10.698946
v 3.330723 5.480177 9.766414
v 5.990222 7.312719 10.540258
v 10.544047 2.805897 5.108124
v 12.350204 3.063301 6.690213
v 5.180328 2.476304 11.915614
v 7.048150 3.267555 12.998270
v 10.240868 5.201235 5.064525
v 12.047024 5.458637 6.646612
v 5.287502 3.800453 10.738633
v 7.157234 4.586647 11.816044
v 21.715168 4.304785 -0.813303
v 19.064226 1.228436 -4.252410
v 19.718840 5.948650 -3.587668
v 18.517326 1.491495 -5.003732
v 17.862160 4.437597 2.037876
v 15.211223 1.361253 -1.401232
v 15.865832 6.081465 -0.736489
v 14.664321 1.624310 -2.152554
v 20.635466 2.990211 -2.211150
v 18.416918 4.057327 -5.258946
v 14.563913 4.190144 -2.407767
v 16.782461 3.123028 0.640029
v 22.659658 2.016580 0.569644
v 20.639900 0.703410 -2.098633
v 16.786894 0.836226 0.752546
v 18.806650 2.149395 3.420823
v 18.636892 5.210293 -5.015385
v 14.783889 5.343111 -2.164206
v 17.754005 3.763323 1.923121
v 21.607008 3.630507 -0.928058
v 2.142944 8.768499 -9.480780
v 3.049415 11.877827 -10.695314
v 2.092148 9.057119 -7.082915
v 2.833556 12.378641 -7.829051
v 0.065056 8.209694 -11.195929
v 0.996477 11.300198 -12.430626
v -1.077993 9.327677 -7.895010
v -0.419232 12.688078 -8.664059
v 8.496786 6.793644 -8.579199
v 9.374381 8.670509 -9.819626
v 1.892980 9.223993 -9.881355
v 2.541083 11.322203 -10.752106
v 8.191847 5.573706 -10.640804
v 9.069443 7.450569 -11.881233
v 0.578280 8.763359 -11.136467
v 1.221687 10.865095 -12.003487
v 11.412581 5.441708 -7.679697
v 12.619540 8.022968 -9.385662
v 8.347073 6.687544 -7.963477
v 9.554031 9.268803 -9.669443
v 10.993195 3.763922 -10.515032
v 12.200153 6.345182 -12.220999
v 7.927685 5.009756 -10.798813
v 9.134645 7.591015 -12.504780
v 17.619736 5.348560 -4.394895
v 17.176611 3.025982 -4.885534
v 12.370131 6.536831 -9.418678
v 12.576146 6.288385 -10.273846
v 15.679317 5.415449 -2.959009
v 15.236194 3.092869 -3.449647
v 11.234747 5.968456 -9.705095
v 11.444457 5.716841 -10.568277
v -2.161223 -24.815342 -3.196415
v -2.161223 -20.492895 -3.196415
v -2.161223 -24.815342 -7.518863
v -2.161223 -20.492895 -7.518863
v 2.161223 -24.815342 -3.196415
v 2.161223 -20.492895 -3.196415
v 2.161223 -24.815342 -7.518863
v 2.161223 -20.492895 -7.518863
v 9.894904 -22.379517 -7.518863
v 9.894904 -24.815342 -7.518863
v 9.894904 -24.815342 -3.196415
v 9.894904 -22.379517 -3.196415
v -1.637212 -4.065440 -3.720428
v -1.637212 -0.791016 -3.720428
v -1.637212 -4.065440 -6.994851
v -1.637212 -0.791016 -6.994851
v 1.637212 -4.065440 -3.720428
v 1.637212 -0.791016 -3.720428
v 1.637212 -4.065440 -6.994851
v 1.637212 -0.791016 -6.994851
v -1.304789 -10.949340 -4.052849
v -1.304789 -4.065440 -4.052849
v -1.304789 -10.949340 -6.662429
v -1.304789 -4.065440 -6.662429
v 1.304790 -10.949340 -4.052849
v 1.304790 -4.065440 -4.052849
v 1.304790 -10.949340 -6.662429
v 1.304790 -4.065440 -6.662429
v -1.637212 -14.223765 -3.720428
v -1.637212 -10.949342 -3.720428
v -1.637212 -14.223765 -6.994851
v -1.637212 -10.949342 -6.994851
v 1.637212 -14.223765 -3.720428
v 1.637212 -10.949342 -3.720428
v 1.637212 -14.223765 -6.994851
v 1.637212 -10.949342 -6.994851
v -1.304789 -20.492895 -4.052849
v -1.304789 -14.223765 -4.052849
v -1.304789 -20.492895 -6.662429
v -1.304789 -14.223765 -6.662429
v 1.304790 -20.492895 -4.052849
v 1.304790 -14.223765 -4.052849
v 1.304790 -20.492895 -6.662429
v 1.304790 -14.223765 -6.662429
vn -1.0000 -0.0000 -0.0000
vn -0.0000 -0.0000 -1.0000
vn 0.2370 0.9715 -0.0000
vn -0.0000 -0.0000 1.0000
vn -0.0000 -1.0000 -0.0000
vn -0.0000 1.0000 -0.0000
vn 1.0000 -0.0000 -0.0000
vn -0.0000 -0.0955 0.9954
vn -0.0000 -0.0955 -0.9954
vn -0.0000 0.8660 -0.5000
vn -0.0000 -0.8660 -0.5000
vn -0.0000 -0.8660 0.5000
vn -0.0000 0.8660 0.5000
vn -0.1798 -0.6994 0.6918
vn -0.8444 0.4784 0.2413
vn -0.1798 -0.6994 -0.6918
vn -0.8444 0.4784 -0.2413
vn -0.2189 -0.6987 0.6811
vn 0.3539 0.8462 0.3984
vn -0.2189 -0.6987 -0.6811
vn 0.3539 0.8462 -0.3984
vn -0.2490 -0.9685 -0.0000
vn -0.8180 -0.0000 0.5752
vn -0.8701 0.4929 -0.0000
vn -0.8180 -0.0000 -0.5752
vn -0.0000 -0.7132 -0.7009
vn -0.0000 0.9084 -0.4182
vn 0.5354 0.3160 -0.7833
vn -0.0295 -0.9991 0.0314
vn 0.3366 0.8730 0.3529
vn 0.5354 0.3160 0.7833
vn -0.0000 -0.7132 0.7009
vn -0.0000 0.9084 0.4182
vn 0.5617 0.3905 0.7294
vn 0.5617 0.3905 -0.7294
vn 0.3366 0.8730 -0.3529
vn -0.0295 -0.9991 -0.0314
vn -0.0000 0.6103 -0.7922
vn 0.1255 -0.9919 0.0181
vn -0.3290 -0.0245 0.9440
vn -0.1255 0.9919 -0.0181
vn -0.7479 -0.1066 -0.6552
vn -0.6250 -0.0932 -0.7751
vn 0.7479 0.1066 0.6552
vn 0.9902 0.1264 0.0597
vn -0.6518 -0.0687 0.7553
vn 0.9899 0.1265 0.0644
vn -0.1256 0.9919 -0.0181
vn 0.7986 0.1118 0.5914
vn -0.9909 -0.1263 -0.0474
vn 0.6152 0.0636 -0.7858
vn -0.9569 0.2301 0.1773
vn -0.0930 0.0088 -0.9956
vn 0.9604 -0.2466 0.1299
vn 0.5542 -0.3543 0.7532
vn 0.0382 -0.9988 0.0319
vn 0.0115 0.9908 0.1352
vn -0.2396 -0.0380 0.9701
vn -0.5968 0.4173 -0.6854
vn 0.1499 0.1239 -0.9809
vn 0.5573 -0.8289 0.0478
vn -0.7484 -0.4744 -0.4635
vn 0.7132 0.5365 0.4511
vn -0.2195 -0.0916 0.9713
vn -0.5573 0.8289 -0.0478
vn 0.2195 0.0916 -0.9713
vn -0.8008 -0.5518 -0.2330
vn 0.8008 0.5518 0.2330
vn 0.1792 -0.9743 0.1364
vn -0.5781 0.5691 0.5847
vn -0.2542 0.9668 -0.0281
vn 0.6518 0.0687 -0.7553
vn -0.7296 -0.2476 -0.6374
vn 0.7163 0.2522 0.6507
vn 0.8035 -0.0277 -0.5946
vn -0.5940 -0.1026 -0.7979
vn -0.8035 0.0277 0.5946
vn 0.1835 0.9618 0.2032
vn 0.2780 0.9008 0.3337
vn -0.1835 -0.9618 -0.2032
vn 0.1993 -0.9288 0.3126
vn -0.5663 0.2724 -0.7779
vn 0.1966 -0.9305 0.3091
vn -0.1367 -0.9808 -0.1391
vn -0.2062 0.9241 -0.3217
vn 0.5744 -0.2260 0.7868
vn 0.9712 -0.2236 0.0827
vn -0.2179 0.2590 0.9410
vn -0.9212 0.1112 -0.3729
vn 0.6441 -0.4385 -0.6267
vn -0.0565 -0.9720 0.2281
vn 0.0753 0.9638 -0.2559
vn 0.0268 0.4609 0.8871
vn -0.6934 0.4470 0.5651
vn -0.1435 -0.4198 -0.8962
vn 0.9230 -0.3751 0.0854
vn -0.3653 -0.7462 0.5565
vn 0.3516 0.7544 -0.5543
vn 0.1263 0.5052 0.8537
vn -0.9230 0.3751 -0.0854
vn -0.1263 -0.5052 -0.8537
vn -0.3634 -0.7772 0.5137
vn 0.3634 0.7772 -0.5137
vn 0.7544 0.2484 -0.6075
vn -0.3518 0.8725 -0.3390
vn -0.8638 -0.1709 0.4740
vn 0.5663 -0.2724 0.7779
vn -0.0803 0.9743 0.2103
vn -0.0077 -0.9068 -0.4216
vt 0.317063 0.857805
vt 0.250502 0.857805
vt 0.250502 0.791168
vt 0.317063 0.791168
vt 0.450412 0.674497
vt 0.383777 0.674497
vt 0.383777 0.607860
vt 0.450412 0.607860
vt 0.317140 0.555197
vt 0.383777 0.555197
vt 0.383777 0.675660
vt 0.317140 0.675660
vt 0.753999 0.066637
vt 0.687363 0.066637
vt 0.687363 -0.000000
vt 0.753999 0.000000
vt 0.796505 0.244317
vt 0.796505 0.310947
vt 0.729867 0.310947
vt 0.729867 0.244317
vt 0.317140 0.488633
vt 0.383777 0.488633
vt 0.239307 0.977578
vt 0.201755 0.977578
vt 0.201755 0.910941
vt 0.239307 0.910941
vt 0.412861 0.488633
vt 0.450412 0.488633
vt 0.753999 0.185864
vt 0.716448 0.185864
vt 0.796505 0.430161
vt 0.729867 0.430161
vt 0.146588 0.989892
vt 0.096165 0.989892
vt 0.096165 0.939411
vt 0.146588 0.939411
vt 0.434256 0.961609
vt 0.383777 0.961609
vt 0.383777 0.911129
vt 0.434256 0.911129
vt 0.905253 0.157916
vt 0.905253 0.107435
vt 0.955733 0.107435
vt 0.955733 0.157916
vt 0.300981 0.962772
vt 0.250502 0.962772
vt 0.250502 0.912291
vt 0.300981 0.912291
vt 0.971776 0.725947
vt 0.921301 0.725947
vt 0.921301 0.675466
vt 0.971776 0.675466
vt 0.494537 0.932075
vt 0.544962 0.932075
vt 0.544962 0.982555
vt 0.494537 0.982555
vt 0.324425 0.902768
vt 0.324425 0.796764
vt 0.364656 0.796764
vt 0.364656 0.902768
vt 0.840838 0.545246
vt 0.840838 0.439122
vt 0.881069 0.439122
vt 0.881069 0.545246
vt 0.803652 0.852217
vt 0.803652 0.746091
vt 0.843883 0.746091
vt 0.843883 0.852217
vt 0.840840 0.731110
vt 0.840840 0.624986
vt 0.881070 0.624986
vt 0.881070 0.731110
vt 0.905249 0.242883
vt 0.865022 0.242883
vt 0.865022 0.202652
vt 0.905249 0.202652
vt 0.992944 0.087684
vt 0.952758 0.087684
vt 0.952758 0.047453
vt 0.992944 0.047453
vt 0.999927 0.953895
vt 0.949505 0.953895
vt 0.949505 0.903415
vt 0.999927 0.903415
vt 0.964670 0.395757
vt 0.914191 0.395757
vt 0.914191 0.345277
vt 0.964670 0.345277
vt 0.894363 0.957181
vt 0.843883 0.957181
vt 0.843883 0.906700
vt 0.894363 0.906700
vt 0.971778 0.489603
vt 0.921299 0.489603
vt 0.921299 0.439122
vt 0.971778 0.439122
vt 0.816903 0.972162
vt 0.766428 0.972162
vt 0.766428 0.921682
vt 0.816903 0.921682
vt 0.935313 0.746091
vt 0.985737 0.746091
vt 0.985737 0.796571
vt 0.935313 0.796571
vt 0.881069 0.535659
vt 0.921299 0.439122
vt 0.921299 0.535659
vt 0.151274 0.910941
vt 0.151274 0.814295
vt 0.191505 0.814295
vt 0.191505 0.910941
vt 0.055542 0.903412
vt 0.055542 0.806764
vt 0.095773 0.806764
vt 0.095773 0.903412
vt 0.231736 0.814295
vt 0.231736 0.910941
vt 0.954417 0.435988
vt 0.914191 0.435988
vt 0.914191 0.395757
vt 0.954417 0.395757
vt 0.989691 0.994126
vt 0.949505 0.994126
vt 0.949505 0.953895
vt 0.989691 0.953895
vt 0.457700 0.728154
vt 0.457700 0.674497
vt 0.491823 0.674497
vt 0.491823 0.728154
vt 0.905253 0.053718
vt 0.905253 0.000000
vt 0.952758 0.000000
vt 0.952758 0.053718
vt 0.450412 0.663457
vt 0.450412 0.609738
vt 0.484536 0.609738
vt 0.484536 0.663457
vt 0.905253 0.107435
vt 0.952758 0.053718
vt 0.952758 0.107435
vt 0.491823 0.728154
vt 0.491823 0.775655
vt 0.457700 0.775655
vt 0.457700 0.728154
vt 0.952758 0.047453
vt 0.986882 0.000000
vt 0.986882 0.047453
vt 0.372520 0.488633
vt 0.250502 0.488633
vt 0.250502 0.244317
vt 0.372520 0.244317
vt 0.494819 0.122155
vt 0.494819 -0.000000
vt 0.591091 -0.000000
vt 0.591091 0.122155
vt 0.372661 0.244317
vt 0.250502 0.244317
vt 0.250502 0.000000
vt 0.372661 0.000000
vt 0.591091 0.122155
vt 0.591091 0.000000
vt 0.687363 0.000000
vt 0.687363 0.122155
vt 0.192428 0.713207
vt 0.096165 0.713207
vt 0.096165 0.481378
vt 0.192428 0.481378
vt -0.000000 0.481378
vt 0.096165 0.481378
vt 0.096165 0.725694
vt 0.000000 0.725694
vt 0.591091 0.187156
vt 0.687363 0.187156
vt 0.437706 0.238073
vt 0.437706 0.006243
vt 0.494819 0.187156
vt 0.591091 0.187156
vt 0.437490 0.482390
vt 0.437490 0.250560
vt 0.494537 0.482390
vt 0.494537 0.250560
vt 0.494819 0.244268
vt 0.591091 0.244268
vt 0.494819 0.238073
vt 0.494819 0.006243
vt 0.591091 0.244268
vt 0.687363 0.244268
vt 0.557039 0.930672
vt 0.557039 0.881182
vt 0.568339 0.880875
vt 0.568339 0.930365
vt 0.382831 0.750266
vt 0.382831 0.799811
vt 0.369782 0.799811
vt 0.369782 0.750266
vt 0.821282 0.951647
vt 0.821282 0.902107
vt 0.832582 0.902014
vt 0.832582 0.951554
vt 0.843883 0.902107
vt 0.843883 0.951647
vt 0.950451 0.236358
vt 0.939151 0.242883
vt 0.927850 0.236358
vt 0.927850 0.223309
vt 0.939151 0.216785
vt 0.950451 0.223309
vt 0.369782 0.849356
vt 0.369782 0.799811
vt 0.382831 0.799811
vt 0.382831 0.849356
vt 0.545738 0.930365
vt 0.545738 0.880875
vt 0.964670 0.263873
vt 0.964670 0.250828
vt 0.975961 0.244317
vt 0.987252 0.250850
vt 0.987251 0.263895
vt 0.975961 0.270407
vt 0.146595 0.062696
vt 0.062658 0.000000
vt 0.189885 0.006047
vt 0.511048 0.244317
vt 0.615255 0.293557
vt 0.516794 0.376380
vt 0.167960 0.079023
vt 0.211251 0.022373
vt 0.250502 0.143545
vt 0.632564 0.314134
vt 0.663232 0.425234
vt 0.534103 0.396957
vt 0.134292 0.078796
vt 0.000000 0.180019
vt 0.053531 0.011944
vt 0.103897 0.369582
vt 0.186831 0.433590
vt 0.092683 0.457749
vt 0.155657 0.095123
vt 0.241375 0.155489
vt 0.093262 0.251287
vt 0.082664 0.353083
vt -0.000000 0.385730
vt 0.000152 0.288532
vt 0.157278 0.070860
vt 0.200568 0.014210
vt 0.494537 0.258205
vt 0.494537 0.395102
vt 0.623909 0.303845
vt 0.525449 0.386669
vt 0.646721 0.439122
vt 0.511847 0.415679
vt 0.095084 0.337099
vt 0.009366 0.276675
vt 0.660165 0.519440
vt 0.597164 0.660463
vt 0.604974 0.463189
vt 0.623430 0.451968
vt 0.144975 0.086959
vt 0.000000 0.276675
vt 0.093280 0.361332
vt -0.000000 0.481378
vt 0.570898 0.451968
vt 0.589354 0.463189
vt 0.597164 0.660463
vt 0.534163 0.519440
vt 0.116317 0.353598
vt 0.196045 0.421732
vt 0.503192 0.405390
vt 0.578708 0.439122
vt 0.597164 0.450344
vt 0.105701 0.345349
vt 0.597164 0.450344
vt 0.615620 0.439122
vt 0.556917 0.725882
vt 0.494537 0.583837
vt 0.699790 0.583837
vt 0.637411 0.725882
vt 0.752722 0.220336
vt 0.752722 0.237562
vt 0.741849 0.237562
vt 0.741849 0.220336
vt 0.196045 0.639989
vt 0.213291 0.639989
vt 0.213291 0.657236
vt 0.196045 0.657236
vt 0.250056 0.636913
vt 0.250056 0.654160
vt 0.239183 0.654160
vt 0.239183 0.636913
vt 0.213291 0.639989
vt 0.230537 0.639989
vt 0.230537 0.657236
vt 0.213291 0.657236
vt 0.741849 0.203108
vt 0.741849 0.185864
vt 0.752722 0.185864
vt 0.752722 0.203108
vt 0.752722 0.203108
vt 0.752722 0.220336
vt 0.741849 0.220336
vt 0.741849 0.203108
vt 0.233273 0.562866
vt 0.233273 0.419871
vt 0.239183 0.427534
vt 0.239183 0.562866
vt 0.233273 0.419871
vt 0.233273 0.284386
vt 0.239183 0.284386
vt 0.239183 0.419871
vt 0.239183 0.419834
vt 0.239183 0.284346
vt 0.245093 0.276675
vt 0.245093 0.419834
vt 0.239183 0.562990
vt 0.239183 0.419834
vt 0.245093 0.419834
vt 0.245093 0.562990
vt 0.493550 0.494543
vt 0.487641 0.494543
vt 0.487641 0.488633
vt 0.493550 0.488633
vt 0.233273 0.276675
vt 0.239183 0.276675
vt 0.862290 0.415219
vt 0.862290 0.365728
vt 0.873590 0.365422
vt 0.873590 0.414912
vt 0.693325 0.799805
vt 0.693325 0.849350
vt 0.680276 0.849350
vt 0.680276 0.799805
vt 0.545738 0.980304
vt 0.545738 0.930765
vt 0.557038 0.930672
vt 0.557038 0.980212
vt 0.568339 0.930765
vt 0.568339 0.980304
vt 0.916549 0.242882
vt 0.905249 0.236358
vt 0.905249 0.223309
vt 0.916549 0.216785
vt 0.927850 0.223309
vt 0.927850 0.236358
vt 0.231736 0.863840
vt 0.231736 0.814295
vt 0.244784 0.814295
vt 0.244784 0.863840
vt 0.850989 0.414912
vt 0.850989 0.365422
vt 0.975970 0.296474
vt 0.964670 0.289957
vt 0.964670 0.276924
vt 0.975970 0.270407
vt 0.987271 0.276924
vt 0.987271 0.289957
vt 0.832582 0.902014
vt 0.832582 0.852524
vt 0.843883 0.901707
vt 0.563128 0.806952
vt 0.563128 0.856496
vt 0.550080 0.856496
vt 0.550080 0.806952
vt 0.300981 0.961924
vt 0.300981 0.912384
vt 0.312282 0.912291
vt 0.312282 0.961831
vt 0.323583 0.912384
vt 0.323583 0.961924
vt 0.843883 0.971220
vt 0.832583 0.977744
vt 0.821282 0.971220
vt 0.821282 0.958171
vt 0.832583 0.951647
vt 0.843883 0.958171
vt 0.369782 0.898901
vt 0.369782 0.849356
vt 0.382831 0.849356
vt 0.382831 0.898901
vt 0.821282 0.901707
vt 0.821282 0.852217
vt 0.666764 0.972229
vt 0.666764 0.959184
vt 0.678055 0.952673
vt 0.689345 0.959207
vt 0.689345 0.972252
vt 0.678055 0.978763
vt 0.790918 0.060400
vt 0.753999 0.029601
vt 0.753999 0.014711
vt 0.790918 -0.000000
vt 0.037062 0.880687
vt -0.000000 0.880687
vt 0.000000 0.806764
vt 0.037062 0.806764
vt 0.420738 0.790006
vt 0.383777 0.775295
vt 0.383777 0.760405
vt 0.420738 0.729606
vt 0.754899 0.810831
vt 0.754899 0.884747
vt 0.699790 0.884747
vt 0.699790 0.810831
vt 0.073916 0.783297
vt -0.000000 0.783297
vt 0.000143 0.725694
vt 0.074059 0.725694
vt 0.097516 0.713492
vt 0.171357 0.713207
vt 0.171414 0.728097
vt 0.097574 0.728381
vt 0.382831 0.750266
vt 0.361650 0.749501
vt 0.361650 0.675660
vt 0.382831 0.676425
vt 0.439219 0.790006
vt 0.437000 0.708425
vt 0.055542 0.880687
vt 0.055542 0.806764
vt 0.807160 0.081581
vt 0.809377 -0.000000
vt 0.096166 0.814295
vt 0.097574 0.770171
vt 0.171414 0.769887
vt 0.170006 0.814011
vt 0.790918 0.115509
vt 0.757414 0.071390
vt 0.387196 0.718615
vt 0.420738 0.674497
vt 0.817811 0.081070
vt 0.827837 0.023467
vt 0.074179 0.806764
vt 0.000263 0.806764
vt 0.457700 0.766539
vt 0.447663 0.708936
vt 0.249843 0.636913
vt 0.239183 0.636913
vt 0.239183 0.562990
vt 0.249843 0.562990
vt 0.929818 0.614713
vt 0.875395 0.614713
vt 0.875395 0.560227
vt 0.929818 0.560227
vt 0.820911 0.614713
vt 0.766426 0.614713
vt 0.766426 0.560227
vt 0.820911 0.560227
vt 0.246914 0.713207
vt 0.192428 0.713207
vt 0.192428 0.658722
vt 0.246914 0.658722
vt 0.623201 0.901472
vt 0.568716 0.901472
vt 0.568716 0.846987
vt 0.623201 0.846987
vt 0.898363 0.906700
vt 0.843883 0.852214
vt 0.898363 0.852214
vt 0.383777 0.856643
vt 0.438202 0.856643
vt 0.438202 0.911129
vt 0.383777 0.911129
vt 0.680276 0.846987
vt 0.643091 0.846987
vt 0.643091 0.725882
vt 0.680276 0.725882
vt 0.421004 0.998837
vt 0.383777 0.998837
vt 0.421004 0.961609
vt 0.233273 0.397779
vt 0.196045 0.397779
vt 0.196045 0.276675
vt 0.233273 0.276675
vt 0.935591 0.991844
vt 0.898363 0.991844
vt 0.898363 0.954615
vt 0.935591 0.954615
vt 0.803652 0.746091
vt 0.766428 0.746091
vt 0.766428 0.624986
vt 0.803652 0.624986
vt 0.568716 0.725882
vt 0.605904 0.725882
vt 0.605904 0.846987
vt 0.568716 0.846987
vt 0.949505 0.954615
vt 0.898363 0.954615
vt 0.898363 0.903415
vt 0.949505 0.903415
vt 0.935313 0.797292
vt 0.884114 0.797292
vt 0.884114 0.746091
vt 0.935313 0.746091
vt 0.545738 0.932075
vt 0.494537 0.932075
vt 0.494537 0.880875
vt 0.545738 0.880875
vt 0.147365 0.939411
vt 0.096165 0.939411
vt 0.096165 0.888211
vt 0.147365 0.888211
vt 0.949559 0.903415
vt 0.898363 0.903415
vt 0.898363 0.852214
vt 0.949559 0.852214
vt 0.677681 0.952673
vt 0.626537 0.952673
vt 0.626537 0.901472
vt 0.677681 0.901472
vt 0.865022 0.121105
vt 0.827837 0.121105
vt 0.827837 -0.000000
vt 0.865022 0.000000
vt 0.287730 1.000000
vt 0.250502 1.000000
vt 0.250502 0.962771
vt 0.287730 0.962771
vt 0.487641 0.609738
vt 0.450412 0.609738
vt 0.450412 0.488633
vt 0.992961 0.144664
vt 0.955733 0.144664
vt 0.955733 0.107435
vt 0.992961 0.107435
vt 0.361650 0.796764
vt 0.324425 0.796764
vt 0.324425 0.675659
vt 0.361650 0.675659
vt 0.840838 0.560227
vt 0.803651 0.560227
vt 0.803651 0.439122
vt 0.840838 0.439122
vt 0.287464 0.736060
vt 0.250502 0.705260
vt 0.250502 0.690371
vt 0.287464 0.675659
vt 0.531599 0.880875
vt 0.494537 0.880875
vt 0.494537 0.806951
vt 0.531599 0.806951
vt 0.790917 0.231018
vt 0.753999 0.216306
vt 0.753999 0.201417
vt 0.790917 0.170617
vt 0.096165 0.888211
vt 0.096165 0.814295
vt 0.151274 0.814295
vt 0.151274 0.888211
vt 0.494537 0.749349
vt 0.568453 0.749349
vt 0.568596 0.806951
vt 0.494680 0.806951
vt 0.171472 0.713207
vt 0.245313 0.713491
vt 0.245255 0.728381
vt 0.171414 0.728097
vt 0.074179 0.726459
vt 0.095359 0.725694
vt 0.095359 0.799536
vt 0.074179 0.800301
vt 0.809377 0.231018
vt 0.807160 0.149437
vt 0.550080 0.880875
vt 0.550080 0.806951
vt 0.303725 0.757240
vt 0.305945 0.675659
vt 0.172823 0.814011
vt 0.171414 0.769887
vt 0.245255 0.770171
vt 0.246663 0.814295
vt 0.287464 0.791168
vt 0.253921 0.747050
vt 0.757414 0.159627
vt 0.790917 0.115509
vt 0.314388 0.756729
vt 0.324425 0.699127
vt 0.494801 0.725882
vt 0.827836 0.207550
vt 0.817811 0.149948
vt 0.690936 0.799805
vt 0.680276 0.725882
vt 0.690936 0.725882
vt 0.741849 0.240350
vt 0.687363 0.240350
vt 0.687363 0.185864
vt 0.741849 0.185864
vt 0.850989 0.419907
vt 0.796505 0.419907
vt 0.796505 0.365422
vt 0.850989 0.365422
vt 0.820851 0.921682
vt 0.766428 0.921682
vt 0.766428 0.867196
vt 0.820851 0.867196
vt 0.875395 0.614713
vt 0.820910 0.614713
vt 0.820910 0.560227
vt 0.875395 0.560227
vt 0.623201 0.846987
vt 0.677681 0.846987
vt 0.623201 0.901472
vt 0.304928 0.912291
vt 0.250502 0.912291
vt 0.250502 0.857805
vt 0.304928 0.857805
vt 0.233273 0.639989
vt 0.196045 0.639989
vt 0.196045 0.518884
vt 0.233273 0.518884
vt 0.992961 0.181892
vt 0.955733 0.181892
vt 0.955733 0.144664
vt 0.992961 0.144664
vt 0.865022 0.242210
vt 0.827837 0.242210
vt 0.827837 0.121105
vt 0.865022 0.121105
vt 0.992961 0.219121
vt 0.955733 0.219121
vt 0.955733 0.181892
vt 0.992961 0.181892
vt 0.833729 0.365422
vt 0.796505 0.365422
vt 0.796505 0.244317
vt 0.833729 0.244317
vt 0.643091 0.846986
vt 0.605904 0.846986
vt 0.605904 0.725882
vt 0.643091 0.725882
vt 0.051200 0.931888
vt -0.000000 0.931888
vt -0.000000 0.880687
vt 0.051200 0.880687
vt 0.935313 0.848492
vt 0.884114 0.848492
vt 0.884114 0.797292
vt 0.935313 0.797292
vt 0.375567 0.953969
vt 0.324425 0.953969
vt 0.324425 0.902768
vt 0.375567 0.902768
vt 0.750990 0.935947
vt 0.699790 0.935947
vt 0.699790 0.884747
vt 0.750990 0.884747
vt 0.490568 0.947330
vt 0.439372 0.947330
vt 0.439372 0.896129
vt 0.490568 0.896129
vt 0.619860 0.952673
vt 0.568716 0.952673
vt 0.568716 0.901472
vt 0.619860 0.901472
vt 0.233273 0.518884
vt 0.196045 0.518884
vt 0.196045 0.397779
vt 0.233273 0.397779
vt 0.881111 0.994409
vt 0.843883 0.994409
vt 0.843883 0.957180
vt 0.881111 0.957181
vt 0.803613 0.867196
vt 0.766428 0.746091
vt 0.803613 0.746091
vt 0.188502 0.998650
vt 0.151274 0.998650
vt 0.151274 0.961421
vt 0.188502 0.961421
vt 0.766426 0.439122
vt 0.766426 0.560227
vt 0.840840 0.746091
vt 0.803652 0.746091
vt 0.803652 0.624986
vt 0.450337 0.856643
vt 0.383777 0.790006
vt 0.450337 0.790006
vt 0.729867 0.430180
vt 0.663232 0.430180
vt 0.663232 0.363543
vt 0.729867 0.363543
vt 0.250502 0.555197
vt 0.317140 0.555197
vt 0.317140 0.675660
vt 0.250502 0.675660
vt 0.766426 0.505760
vt 0.699791 0.505760
vt 0.699791 0.439122
vt 0.766426 0.439122
vt 0.766428 0.691617
vt 0.699790 0.691617
vt 0.699790 0.624986
vt 0.250502 0.488633
vt 0.317140 0.488633
vt 0.093094 0.970050
vt 0.055542 0.970050
vt 0.055542 0.903412
vt 0.093094 0.903412
vt 0.692316 0.244317
vt 0.729867 0.244317
vt 0.766426 0.624986
vt 0.728875 0.624986
vt 0.766428 0.810831
vt 0.699790 0.810831
vt 0.489795 0.997810
vt 0.439372 0.997810
vt 0.489795 0.947330
vt 0.964670 0.294797
vt 0.914191 0.294797
vt 0.914191 0.244317
vt 0.964670 0.244317
vt 0.905253 0.208396
vt 0.955733 0.157916
vt 0.955733 0.208396
vt 0.964670 0.345277
vt 0.914191 0.345277
vt 0.914191 0.294797
vt 0.964670 0.294797
vt 0.980293 0.610708
vt 0.929818 0.610708
vt 0.929818 0.560227
vt 0.980293 0.560227
vt 0.935313 0.797292
vt 0.985737 0.797292
vt 0.985737 0.847772
vt 0.935313 0.847772
vt 0.865022 0.106004
vt 0.865022 0.000000
vt 0.905253 0.106004
vt 0.843883 0.852215
vt 0.843883 0.746091
vt 0.884114 0.746091
vt 0.884114 0.852215
vt 0.833729 0.350442
vt 0.833729 0.244317
vt 0.873960 0.244317
vt 0.873960 0.350442
vt 0.450337 0.896129
vt 0.450337 0.790006
vt 0.490568 0.790006
vt 0.490568 0.896129
vt 0.608943 0.992903
vt 0.568716 0.992903
vt 0.568716 0.952673
vt 0.608943 0.952673
vt 0.364612 0.994199
vt 0.324425 0.994199
vt 0.364612 0.953969
vt 0.999981 0.902695
vt 0.949559 0.902695
vt 0.949559 0.852215
vt 0.999981 0.852215
vt 0.971778 0.540083
vt 0.921299 0.540083
vt 0.921299 0.489603
vt 0.971779 0.489603
vt 0.151274 0.961421
vt 0.151274 0.910941
vt 0.201755 0.961421
vt 0.971780 0.675466
vt 0.921301 0.675466
vt 0.921301 0.624986
vt 0.971780 0.624986
vt 0.050475 0.982368
vt -0.000000 0.982368
vt 0.000000 0.931888
vt 0.050475 0.931888
vt 0.699791 0.935947
vt 0.750215 0.935947
vt 0.750215 0.986427
vt 0.699791 0.986427
vt 0.881070 0.721523
vt 0.881070 0.624986
vt 0.921301 0.624986
vt 0.921301 0.721523
vt 0.873960 0.340963
vt 0.873960 0.244317
vt 0.914191 0.244317
vt 0.914191 0.340963
vt 0.865022 0.106004
vt 0.905253 0.106004
vt 0.905253 0.202652
vt 0.873960 0.437609
vt 0.873960 0.340963
vt 0.914191 0.340963
vt 0.914191 0.437609
vt 0.666764 0.992904
vt 0.626537 0.992904
vt 0.626537 0.952673
vt 0.666764 0.952673
vt 0.994603 0.435988
vt 0.954417 0.435988
vt 0.954417 0.395757
vt 0.994603 0.395757
s 0
usemtl Material
f 1/1/1 2/2/1 4/3/1 3/4/1
f 3/5/2 4/6/2 8/7/2 7/8/2
f 8/9/3 6/10/3 12/11/3 9/12/3
f 5/13/4 6/14/4 2/15/4 1/16/4
f 3/17/5 7/18/5 5/19/5 1/20/5
f 8/9/6 4/21/6 2/22/6 6/10/6
f 10/23/7 9/24/7 12/25/7 11/26/7
f 7/8/2 8/7/2 9/27/2 10/28/2
f 6/14/4 5/13/4 11/29/4 12/30/4
f 5/19/5 7/18/5 10/31/5 11/32/5
f 13/33/1 14/34/1 16/35/1 15/36/1
f 15/37/2 16/38/2 20/39/2 19/40/2
f 19/41/7 20/42/7 18/43/7 17/44/7
f 17/45/4 18/46/4 14/47/4 13/48/4
f 15/49/5 19/50/5 17/51/5 13/52/5
f 20/53/6 16/54/6 14/55/6 18/56/6
f 21/57/1 22/58/1 24/59/1 23/60/1
f 23/61/2 24/62/2 28/63/2 27/64/2
f 27/65/7 28/66/7 26/67/7 25/68/7
f 25/69/4 26/70/4 22/71/4 21/72/4
f 23/73/5 27/74/5 25/75/5 21/76/5
f 28/77/6 24/78/6 22/79/6 26/80/6
f 29/81/1 30/82/1 32/83/1 31/84/1
f 31/85/2 32/86/2 36/87/2 35/88/2
f 35/89/7 36/90/7 34/91/7 33/92/7
f 33/93/4 34/94/4 30/95/4 29/96/4
f 31/97/5 35/98/5 33/99/5 29/100/5
f 36/101/6 32/102/6 30/103/6 34/104/6
f 37/105/1 38/63/1 40/106/1 39/107/1
f 39/108/2 40/109/2 44/110/2 43/111/2
f 43/112/7 44/113/7 42/114/7 41/115/7
f 41/111/4 42/110/4 38/116/4 37/117/4
f 39/118/5 43/119/5 41/120/5 37/121/5
f 44/122/6 40/123/6 38/124/6 42/125/6
f 45/126/1 46/127/1 48/128/1 47/129/1
f 47/130/2 48/131/2 52/132/2 51/133/2
f 51/134/7 52/135/7 50/136/7 49/137/7
f 49/138/4 50/130/4 46/139/4 45/140/4
f 47/141/5 51/142/5 49/143/5 45/144/5
f 52/145/6 48/132/6 46/146/6 50/147/6
f 61/148/1 54/149/1 56/150/1 62/151/1
f 62/152/2 56/153/2 60/154/2 63/155/2
f 63/156/7 60/157/7 58/158/7 64/159/7
f 64/160/4 58/161/4 54/162/4 61/163/4
f 55/164/5 59/165/5 57/166/5 53/167/5
f 60/168/6 56/169/6 54/170/6 58/171/6
f 67/172/8 64/160/8 61/163/8 68/173/8
f 66/174/7 63/156/7 64/159/7 67/175/7
f 65/176/9 62/152/9 63/155/9 66/177/9
f 68/178/1 61/148/1 62/151/1 65/179/1
f 53/180/1 68/178/1 65/179/1 55/181/1
f 55/182/2 65/176/2 66/177/2 59/183/2
f 59/184/7 66/174/7 67/175/7 57/185/7
f 57/186/4 67/172/4 68/173/4 53/187/4
f 69/188/10 70/189/10 72/190/10 71/191/10
f 71/192/2 72/193/2 74/194/2 73/195/2
f 73/196/11 74/197/11 76/198/11 75/199/11
f 75/199/12 76/198/12 78/200/12 77/201/12
f 72/202/7 70/203/7 80/204/7 78/205/7 76/206/7 74/207/7
f 77/208/4 78/209/4 80/210/4 79/211/4
f 79/212/13 80/213/13 70/189/13 69/188/13
f 69/214/1 71/215/1 73/216/1 75/217/1 77/218/1 79/219/1
f 81/220/14 82/221/14 83/222/14
f 84/223/15 85/224/15 86/225/15
f 87/226/16 88/227/16 89/228/16
f 90/229/17 91/230/17 92/231/17
f 93/232/18 94/233/18 95/234/18
f 96/235/19 97/236/19 98/237/19
f 99/238/20 100/239/20 101/240/20
f 102/241/21 103/242/21 104/243/21
f 105/244/22 81/220/22 83/222/22 106/245/22
f 82/246/23 84/223/23 86/225/23 83/247/23
f 107/248/24 90/229/24 92/231/24 108/249/24
f 91/230/25 89/250/25 88/251/25 92/231/25
f 99/238/26 87/226/26 89/228/26 100/239/26
f 90/252/27 102/241/27 104/243/27 91/253/27
f 103/254/28 101/255/28 100/256/28 104/257/28
f 109/258/29 99/238/29 101/240/29 110/259/29
f 111/260/30 96/235/30 98/237/30 112/261/30
f 97/262/31 95/263/31 94/264/31 98/265/31
f 81/220/32 93/232/32 95/234/32 82/221/32
f 96/235/33 85/266/33 84/267/33 97/236/33
f 105/244/5 109/258/5 93/232/5 81/220/5
f 106/268/1 108/249/1 92/231/1 88/251/1
f 95/263/4 97/262/4 84/269/4 82/270/4
f 111/260/6 107/271/6 85/266/6 96/235/6
f 89/272/2 91/273/2 104/257/2 100/256/2
f 110/274/34 112/275/34 98/265/34 94/264/34
f 101/255/35 103/254/35 112/276/35 110/277/35
f 102/241/6 90/252/6 107/271/6 111/260/6
f 83/247/1 86/225/1 108/249/1 106/268/1
f 87/226/5 99/238/5 109/258/5 105/244/5
f 102/241/36 111/260/36 112/261/36 103/242/36
f 93/232/37 109/258/37 110/259/37 94/233/37
f 85/224/24 107/248/24 108/249/24 86/225/24
f 87/226/22 105/244/22 106/245/22 88/227/22
f 113/278/1 114/279/1 116/280/1 115/281/1
f 115/282/2 116/283/2 120/284/2 119/285/2
f 119/286/7 120/287/7 118/288/7 117/289/7
f 117/290/4 118/291/4 114/292/4 113/293/4
f 115/294/5 119/295/5 117/296/5 113/297/5
f 120/298/6 116/299/6 114/300/6 118/301/6
f 121/302/1 122/303/1 124/304/1 123/305/1
f 123/306/2 124/307/2 128/308/2 127/309/2
f 127/310/7 128/311/7 126/312/7 125/313/7
f 125/314/4 126/315/4 122/316/4 121/317/4
f 123/318/5 127/319/5 125/320/5 121/321/5
f 128/308/38 124/307/38 122/322/38 126/323/38
f 129/324/10 130/325/10 132/326/10 131/327/10
f 131/328/2 132/329/2 134/330/2 133/331/2
f 133/332/11 134/333/11 136/334/11 135/335/11
f 135/335/12 136/334/12 138/336/12 137/337/12
f 132/338/7 130/339/7 140/340/7 138/341/7 136/342/7 134/343/7
f 137/344/4 138/345/4 140/346/4 139/347/4
f 139/348/13 140/349/13 130/325/13 129/324/13
f 129/350/1 131/351/1 133/352/1 135/353/1 137/354/1 139/355/1
f 141/356/10 142/357/10 144/68/10 143/358/10
f 143/359/2 144/360/2 146/361/2 145/362/2
f 145/363/11 146/364/11 148/365/11 147/366/11
f 147/366/12 148/365/12 150/367/12 149/368/12
f 144/369/7 142/370/7 152/371/7 150/372/7 148/373/7 146/374/7
f 149/375/4 150/376/4 152/377/4 151/378/4
f 151/379/13 152/380/13 142/357/13 141/356/13
f 141/381/1 143/382/1 145/383/1 147/384/1 149/385/1 151/386/1
f 161/387/39 154/388/39 156/389/39 162/390/39
f 162/391/40 156/392/40 160/393/40 163/394/40
f 163/395/41 160/396/41 158/397/41 164/398/41
f 161/399/42 164/400/42 168/401/42 165/402/42
f 155/403/43 159/404/43 157/405/43 153/406/43
f 160/407/44 156/408/44 154/409/44 158/410/44
f 171/411/45 164/412/45 161/413/45 172/414/45
f 170/415/41 163/395/41 164/398/41 171/416/41
f 169/417/46 162/391/46 163/394/46 170/418/46
f 172/419/39 161/387/39 162/390/39 169/420/39
f 168/421/47 167/422/47 166/423/47 165/424/47
f 154/388/39 161/387/39 165/425/39 166/426/39
f 164/398/48 158/397/48 167/427/48 168/428/48
f 158/410/49 154/409/49 166/423/49 167/422/49
f 153/429/39 172/419/39 169/420/39 155/430/39
f 155/403/50 169/431/50 170/432/50 159/404/50
f 159/433/41 170/415/41 171/416/41 157/434/41
f 157/435/51 171/436/51 172/437/51 153/438/51
f 173/439/52 174/440/52 176/441/52 175/442/52
f 175/443/53 176/444/53 180/445/53 179/446/53
f 179/447/54 180/448/54 178/449/54 177/450/54
f 177/451/55 178/452/55 174/453/55 173/454/55
f 175/455/56 179/91/56 177/456/56 173/457/56
f 180/458/57 176/459/57 174/460/57 178/461/57
f 181/462/58 182/463/58 184/464/58 183/465/58
f 183/466/59 184/467/59 188/38/59 187/468/59
f 187/469/60 188/470/60 186/471/60 185/472/60
f 185/473/61 186/474/61 182/475/61 181/476/61
f 183/477/62 187/478/62 185/479/62 181/480/62
f 188/481/63 184/482/63 182/483/63 186/484/63
f 189/485/64 190/486/64 192/487/64 191/488/64
f 191/489/65 192/490/65 196/491/65 195/492/65
f 195/493/66 196/494/66 194/495/66 193/496/66
f 193/497/61 194/498/61 190/499/61 189/500/61
f 191/501/67 195/502/67 193/503/67 189/504/67
f 196/505/68 192/506/68 190/507/68 194/508/68
f 197/509/69 198/510/69 200/511/69 199/512/69
f 199/513/70 200/514/70 204/515/70 203/516/70
f 203/517/71 204/518/71 202/519/71 201/320/71
f 201/520/72 202/521/72 198/522/72 197/523/72
f 199/524/73 203/525/73 201/526/73 197/527/73
f 204/528/74 200/529/74 198/530/74 202/531/74
f 213/532/75 206/533/75 208/534/75 214/535/75
f 214/536/76 208/537/76 212/538/76 215/539/76
f 215/540/77 212/541/77 210/542/77 216/543/77
f 213/544/78 216/545/78 220/546/78 217/547/78
f 207/548/79 211/549/79 209/550/79 205/551/79
f 212/552/80 208/553/80 206/554/80 210/555/80
f 223/556/81 216/557/81 213/558/81 224/559/81
f 222/560/77 215/540/77 216/543/77 223/561/77
f 221/562/82 214/536/82 215/539/82 222/563/82
f 224/564/75 213/532/75 214/535/75 221/565/75
f 220/566/83 219/567/83 218/568/83 217/569/83
f 206/533/75 213/532/75 217/570/75 218/571/75
f 216/543/77 210/542/77 219/572/77 220/573/77
f 210/555/84 206/554/84 218/568/84 219/567/84
f 205/574/75 224/564/75 221/565/75 207/575/75
f 207/548/85 221/576/85 222/481/85 211/549/85
f 211/577/77 222/560/77 223/561/77 209/578/77
f 209/579/86 223/331/86 224/580/86 205/581/86
f 225/582/87 226/583/87 228/584/87 227/585/87
f 227/586/88 228/587/88 232/588/88 231/589/88
f 231/590/89 232/591/89 230/592/89 229/593/89
f 229/594/90 230/595/90 226/596/90 225/597/90
f 227/598/91 231/599/91 229/508/91 225/600/91
f 232/601/92 228/602/92 226/603/92 230/604/92
f 233/605/93 234/606/93 236/607/93 235/608/93
f 235/609/94 236/610/94 240/611/94 239/612/94
f 239/613/95 240/614/95 238/615/95 237/616/95
f 237/617/96 238/618/96 234/619/96 233/620/96
f 235/621/97 239/622/97 237/623/97 233/624/97
f 240/625/98 236/626/98 234/627/98 238/628/98
f 241/629/99 242/630/99 244/631/99 243/632/99
f 243/633/100 244/634/100 248/635/100 247/636/100
f 247/637/101 248/638/101 246/639/101 245/640/101
f 245/641/96 246/642/96 242/643/96 241/644/96
f 243/645/102 247/646/102 245/647/102 241/648/102
f 248/649/103 244/650/103 242/651/103 246/652/103
f 249/653/104 250/654/104 252/655/104 251/656/104
f 251/657/105 252/658/105 256/659/105 255/660/105
f 255/661/106 256/592/106 254/662/106 253/663/106
f 253/664/107 254/665/107 250/666/107 249/667/107
f 251/668/108 255/530/108 253/529/108 249/669/108
f 256/670/109 252/671/109 250/672/109 254/70/109
f 257/673/1 258/458/1 260/674/1 259/675/1
f 259/676/2 260/677/2 264/678/2 263/679/2
f 264/680/3 262/681/3 268/682/3 265/683/3
f 261/684/4 262/685/4 258/686/4 257/687/4
f 259/479/5 263/688/5 261/689/5 257/690/5
f 264/680/6 260/691/6 258/692/6 262/681/6
f 266/693/7 265/694/7 268/695/7 267/696/7
f 263/679/2 264/678/2 265/697/2 266/698/2
f 262/685/4 261/684/4 267/699/4 268/700/4
f 261/689/5 263/688/5 266/701/5 267/702/5
f 269/703/1 270/704/1 272/646/1 271/705/1
f 271/706/2 272/707/2 276/708/2 275/709/2
f 275/710/7 276/41/7 274/711/7 273/712/7
f 273/713/4 274/714/4 270/715/4 269/716/4
f 271/717/5 275/718/5 273/719/5 269/720/5
f 276/721/6 272/722/6 270/723/6 274/724/6
f 277/725/1 278/726/1 280/131/1 279/727/1
f 279/728/2 280/729/2 284/730/2 283/731/2
f 283/732/7 284/733/7 282/734/7 281/735/7
f 281/736/4 282/737/4 278/738/4 277/739/4
f 279/740/5 283/741/5 281/742/5 277/743/5
f 284/744/6 280/745/6 278/638/6 282/746/6
f 285/747/1 286/748/1 288/749/1 287/750/1
f 287/751/2 288/752/2 292/753/2 291/754/2
f 291/755/7 292/756/7 290/25/7 289/757/7
f 289/758/4 290/759/4 286/760/4 285/761/4
f 287/762/5 291/763/5 289/764/5 285/765/5
f 292/766/6 288/767/6 286/768/6 290/769/6
f 293/770/1 294/771/1 296/772/1 295/773/1
f 295/774/2 296/775/2 300/776/2 299/777/2
f 299/75/7 300/778/7 298/779/7 297/780/7
f 297/781/4 298/782/4 294/783/4 293/784/4
f 295/785/5 299/786/5 297/787/5 293/788/5
f 300/789/6 296/790/6 294/791/6 298/792/6
