# Blender 5.1.0
# www.blender.org
mtllib hp.mtl
o Cube
v 3.694969 4.076982 -8.398656
v 3.694969 5.199899 -6.584969
v 4.712669 4.076982 -6.584969
v 3.694969 -5.199899 -6.584969
v 3.694969 -4.076982 -8.398656
v 4.712669 -4.076982 -6.584969
v 4.712669 4.076982 6.584969
v 3.694969 5.199899 6.584969
v 3.694969 4.076982 8.398656
v 4.712669 -4.076982 6.584969
v 3.694969 -4.076982 8.398656
v 3.694969 -5.199899 6.584969
v -3.694969 4.076982 -8.398656
v -4.712669 4.076982 -6.584969
v -3.694969 5.199899 -6.584969
v -4.712669 -4.076982 -6.584969
v -3.694969 -4.076982 -8.398656
v -3.694969 -5.199899 -6.584969
v -4.712669 4.076982 6.584969
v -3.694969 4.076982 8.398656
v -3.694969 5.199899 6.584969
v -3.694969 -5.199899 6.584969
v -3.694969 -4.076982 8.398656
v -4.712669 -4.076982 6.584969
v 3.694969 4.076982 -8.398656
v 3.694969 5.199899 -6.584969
v 3.694969 5.199899 6.584969
v 3.694969 4.076982 8.398656
v -3.694969 5.199899 -6.584969
v -3.694969 4.076982 -8.398656
v -3.694969 4.076982 8.398656
v -3.694969 5.199899 6.584969
v 3.694969 6.377205 -7.766359
v 3.694969 6.979071 -6.089216
v 3.694969 6.979071 6.089216
v 3.694969 6.377205 7.766359
v -3.694969 6.979071 -6.089216
v -3.694969 6.377205 -7.766359
v -3.694969 6.377205 7.766359
v -3.694969 6.979071 6.089216
v -3.694969 5.880035 6.089216
v 3.694969 5.880035 6.089216
v 3.694969 5.278170 7.766359
v -3.694969 5.278170 7.766359
v 3.694969 5.880035 -6.089216
v -3.694969 5.880035 -6.089216
v -3.694969 5.278170 -7.766359
v 3.694969 5.278170 -7.766359
vn 0.6842 0.6201 -0.3839
vn 0.6842 -0.6201 -0.3839
vn 0.6842 0.6201 0.3839
vn 0.6842 -0.6201 0.3839
vn -0.6842 0.6201 -0.3839
vn -0.6842 -0.6201 -0.3839
vn -0.6842 0.6201 0.3839
vn -0.6842 -0.6201 0.3839
vn -0.7410 -0.6715 -0.0000
vn -0.0000 -0.8502 -0.5264
vn 0.8721 -0.0000 -0.4893
vn -0.8721 -0.0000 0.4893
vn 0.8721 -0.0000 0.4893
vn -0.8721 -0.0000 -0.4893
vn -0.0000 1.0000 -0.0000
vn 0.7410 0.6715 -0.0000
vn -0.0000 -0.8502 0.5264
vn -0.7410 0.6715 -0.0000
vn 0.7410 -0.6715 -0.0000
vn -0.0000 -0.0000 -1.0000
vn 1.0000 -0.0000 -0.0000
vn -0.0000 -1.0000 -0.0000
vn -0.0000 -0.0000 1.0000
vn -1.0000 -0.0000 -0.0000
vn -0.0000 0.9412 0.3378
vn -0.0000 0.9412 -0.3378
vn -0.0000 0.4658 0.8849
vn -0.0000 -0.5890 -0.8081
vn -0.0000 0.4658 -0.8849
vn -0.0000 -0.5890 0.8081
vt 0.359189 0.038783
vt 0.320406 0.038783
vt 0.320406 0.000000
vt 0.680334 0.038783
vt 0.640750 0.038783
vt 0.641559 -0.000000
vt 0.038783 -0.000000
vt 0.038783 0.038783
vt 0.000000 0.038783
vt 0.282370 0.718378
vt 0.281561 0.679594
vt 0.321145 0.679594
vt 0.359189 0.320406
vt 0.320406 0.359189
vt 0.320406 0.320406
vt 0.641559 0.359189
vt 0.640750 0.320405
vt 0.680334 0.320405
vt 0.038783 0.359189
vt -0.000000 0.320406
vt 0.038783 0.320406
vt 0.321145 0.397972
vt 0.281561 0.397972
vt 0.282370 0.359189
vt 0.641550 0.397972
vt 0.641550 0.679594
vt 0.602767 0.679594
vt 0.602767 0.397972
vt 0.641550 0.679594
vt 0.923173 0.679594
vt 0.923173 0.718378
vt 0.641550 0.718378
vt 0.602767 0.718378
vt 0.321145 0.718378
vt 0.321145 0.679594
vt 0.641550 0.359189
vt 0.923173 0.359189
vt 0.923173 0.397972
vt 0.641550 0.397972
vt 0.321145 0.359189
vt 0.602767 0.359189
vt 0.321145 0.397972
vt 0.359189 0.359189
vt 0.961956 0.397972
vt 0.961956 0.679594
vt 0.359189 0.320405
vt 0.359189 0.038783
vt 0.961956 0.000000
vt 0.961956 0.281622
vt 0.680334 0.281622
vt 0.680334 -0.000000
vt 0.000000 0.679594
vt 0.000000 0.397972
vt 0.717082 0.718378
vt 0.717082 1.000000
vt 0.679132 1.000000
vt 0.679132 0.718378
vt 0.778739 0.718378
vt 0.778739 1.000000
vt 0.740789 1.000000
vt 0.740789 0.718378
vt 0.997819 0.000000
vt 0.997819 0.281622
vt 0.961956 0.281622
vt 0.961956 -0.000000
vt 0.961956 0.640811
vt 0.961956 0.359189
vt 0.997820 0.359189
vt 0.997820 0.640811
vt 0.948467 0.782308
vt 0.916599 0.755798
vt 0.922968 0.718378
vt 0.954835 0.744887
vt 0.916599 0.755798
vt 0.884732 0.782308
vt 0.878363 0.744887
vt 0.910231 0.718378
vt 0.558791 0.718378
vt 0.558791 1.000000
vt 0.520840 1.000000
vt 0.520840 0.718378
vt 0.637936 0.718378
vt 0.637936 1.000000
vt 0.599986 1.000000
vt 0.599986 0.718378
vt 0.916599 0.862896
vt 0.884732 0.889405
vt 0.878363 0.851985
vt 0.910231 0.825475
vt 0.948467 0.889405
vt 0.916599 0.862896
vt 0.922968 0.825475
vt 0.954835 0.851985
vt 0.954835 0.932572
vt 0.923109 0.887832
vt 0.910090 0.887832
vt 0.878363 0.932572
vt 0.679132 0.718378
vt 0.679132 1.000000
vt 0.740789 0.718378
vt 0.740789 1.000000
vt 0.910090 0.780734
vt 0.878363 0.825475
vt 0.954835 0.825475
vt 0.923109 0.780734
vt 0.802446 0.718378
vt 0.802446 1.000000
vt 0.840404 0.718378
vt 0.840404 0.978798
vt 0.802446 0.978798
vt 0.802446 0.718378
vt 0.878363 0.718378
vt 0.878363 0.978798
vt 0.260420 1.000000
vt -0.000000 1.000000
vt 0.000000 0.718378
vt 0.260420 0.718378
vt 0.260420 1.000000
vt 0.260420 0.718378
vt 0.520840 0.718378
vt 0.520840 1.000000
s 0
usemtl Material
f 1/1/1 2/2/1 3/3/1
f 4/4/2 5/5/2 6/6/2
f 7/7/3 8/8/3 9/9/3
f 10/10/4 11/11/4 12/12/4
f 13/13/5 14/14/5 15/15/5
f 16/16/6 17/17/6 18/18/6
f 19/19/7 20/20/7 21/21/7
f 22/22/8 23/23/8 24/24/8
f 18/25/9 22/26/9 24/27/9 16/28/9
f 4/4/10 18/18/10 17/17/10 5/5/10
f 3/29/11 6/30/11 5/31/11 1/32/11
f 23/33/12 20/34/12 19/35/12 24/27/12
f 9/36/13 11/37/13 10/38/13 7/39/13
f 13/40/14 17/41/14 16/28/14 14/42/14
f 20/43/15 9/43/15 28/43/15 31/43/15
f 2/2/16 8/8/16 7/7/16 3/3/16
f 22/22/17 12/12/17 11/11/17 23/23/17
f 21/21/18 15/15/18 14/14/18 19/19/18
f 9/43/15 8/43/15 27/43/15 28/43/15
f 12/44/19 4/45/19 6/30/19 10/38/19
f 17/17/20 13/46/20 1/47/20 5/5/20
f 6/30/21 3/29/21 7/39/21 10/38/21
f 2/2/15 15/15/15 21/21/15 8/8/15
f 18/48/22 4/49/22 12/50/22 22/51/22
f 11/11/23 9/52/23 20/53/23 23/23/23
f 24/27/24 19/35/24 14/42/24 16/28/24
f 42/54/20 41/55/20 40/56/20 35/57/20
f 46/58/23 45/59/23 34/60/23 37/61/23
f 15/43/15 2/43/15 26/43/15 29/43/15
f 21/43/15 20/43/15 31/43/15 32/43/15
f 8/43/15 21/43/15 32/43/15 27/43/15
f 1/43/15 13/43/15 30/43/15 25/43/15
f 2/43/15 1/43/15 25/43/15 26/43/15
f 13/43/15 15/43/15 29/43/15 30/43/15
f 35/62/25 40/63/25 39/64/25 36/65/25
f 37/66/26 34/67/26 33/68/26 38/69/26
f 47/70/24 46/71/24 37/72/24 38/73/24
f 45/74/21 48/75/21 33/76/21 34/77/21
f 48/78/20 47/79/20 38/80/20 33/81/20
f 44/82/23 43/83/23 36/84/23 39/85/23
f 41/86/24 44/87/24 39/88/24 40/89/24
f 43/90/21 42/91/21 35/92/21 36/93/21
f 28/94/21 27/95/21 42/91/21 43/90/21
f 32/96/24 31/97/24 44/87/24 41/86/24
f 31/98/27 28/99/27 43/83/27 44/82/27
f 27/100/28 32/101/28 41/55/28 42/54/28
f 25/85/29 30/84/29 47/79/29 48/78/29
f 26/102/21 25/103/21 48/75/21 45/74/21
f 30/104/24 29/105/24 46/71/24 47/70/24
f 29/106/30 26/107/30 45/59/30 46/58/30
f 41/108/21 46/109/21 37/110/21 40/111/21
f 45/112/24 42/113/24 35/109/24 34/108/24
f 34/114/22 35/115/22 40/116/22 37/117/22
f 42/118/22 41/119/22 46/120/22 45/121/22
